<mxfile host="app.diagrams.net" modified="2022-07-24T14:29:26.199Z" agent="5.0 (Macintosh; Intel Mac OS X 10_15_7) AppleWebKit/537.36 (KHTML, like Gecko) Chrome/103.0.0.0 Safari/537.36" etag="NxzbWZRBsiliunO5Qw3f" version="20.2.0" type="github">
  <diagram id="APXStxIOGQkPkx8K9gVw" name="Logging and Monitoring">
    <mxGraphModel dx="1186" dy="715" grid="0" gridSize="10" guides="1" tooltips="1" connect="1" arrows="1" fold="1" page="1" pageScale="1" pageWidth="850" pageHeight="1100" math="0" shadow="0">
      <root>
        <mxCell id="0" />
        <mxCell id="1" parent="0" />
        <mxCell id="FzJaXa5uBq7q-HI_H0ME-1" value="&lt;a href=&quot;https://www.loggly.com/ultimate-guide/python-logging-libraries-frameworks/&quot;&gt;&lt;font&gt;logging&lt;br&gt;Frameworks&lt;/font&gt;&lt;/a&gt;" style="text;html=1;strokeColor=none;fillColor=none;align=center;verticalAlign=middle;whiteSpace=wrap;rounded=0;fontFamily=Helvetica;fontSize=15;horizontal=1;fontColor=#46302B;" parent="1" vertex="1">
          <mxGeometry x="84" y="82" width="60" height="30" as="geometry" />
        </mxCell>
      </root>
    </mxGraphModel>
  </diagram>
</mxfile>
